inDegrees=no
num_controls=7
num_derivatives=13
num_iterations=123
num_multipliers=7
num_parameters=0
num_slacks=7
num_states=26
objective=0.449077
objective_accelerations=0.048002
objective_balance=0.006918
objective_effort=0.036982
objective_height=0.352215
objective_ligament=0.004960
solver_duration=1682.235398
status=Solve_Succeeded
success=true
DataType=double
version=3
OpenSimVersion=4.5
endheader
time	/jointset/ground_pelvis/pelvis_tilt/value	/jointset/ground_pelvis/pelvis_tx/value	/jointset/ground_pelvis/pelvis_ty/value	/jointset/hip_l/hip_flexion_l/value	/jointset/hip_l/hip_adduction_l/value	/jointset/hip_l/hip_rotation_l/value	/jointset/back/lumbar_extension/value	/jointset/patellofemoral_l/patellar_flexion_l/value	/jointset/knee_l/knee_flexion_l/value	/jointset/knee_l/knee_adduction_l/value	/jointset/knee_l/knee_rotation_l/value	/jointset/ankle_l/ankle_angle_l/value	/jointset/subtalar_l/subtalar_angle_l/value	/jointset/ground_pelvis/pelvis_tilt/speed	/jointset/ground_pelvis/pelvis_tx/speed	/jointset/ground_pelvis/pelvis_ty/speed	/jointset/hip_l/hip_flexion_l/speed	/jointset/hip_l/hip_adduction_l/speed	/jointset/hip_l/hip_rotation_l/speed	/jointset/back/lumbar_extension/speed	/jointset/patellofemoral_l/patellar_flexion_l/speed	/jointset/knee_l/knee_flexion_l/speed	/jointset/knee_l/knee_adduction_l/speed	/jointset/knee_l/knee_rotation_l/speed	/jointset/ankle_l/ankle_angle_l/speed	/jointset/subtalar_l/subtalar_angle_l/speed	/forceset/tau_hip_flexion_l	/forceset/tau_hip_adduction_l	/forceset/tau_hip_rotation_l	/forceset/tau_knee_flexion_l	/forceset/tau_ankle_angle_l	/forceset/tau_subtalar_angle_l	/forceset/tau_lumbar_extension	lambda_cid13_p0	lambda_cid13_p1	lambda_cid13_p2	lambda_cid13_p3	lambda_cid13_p4	lambda_cid13_p5	lambda_cid14_p0	/jointset/ground_pelvis/pelvis_tilt/accel	/jointset/ground_pelvis/pelvis_tx/accel	/jointset/ground_pelvis/pelvis_ty/accel	/jointset/hip_l/hip_flexion_l/accel	/jointset/hip_l/hip_adduction_l/accel	/jointset/hip_l/hip_rotation_l/accel	/jointset/back/lumbar_extension/accel	/jointset/patellofemoral_l/patellar_flexion_l/accel	/jointset/knee_l/knee_flexion_l/accel	/jointset/knee_l/knee_adduction_l/accel	/jointset/knee_l/knee_rotation_l/accel	/jointset/ankle_l/ankle_angle_l/accel	/jointset/subtalar_l/subtalar_angle_l/accel	gamma_cid13_p0	gamma_cid13_p1	gamma_cid13_p2	gamma_cid13_p3	gamma_cid13_p4	gamma_cid13_p5	gamma_cid14_p0
0.5	-0.4404840808887981	-0.07743728885295544	0.7672927412332158	1.245557145609089	-0.3091560804866578	-0.05588774453043335	-0.3311030213503351	0.6623425278160319	0.6623425278160265	-0.1724458943860563	0.1736004004330763	0.02131255726073056	-0.05130335943629833	-0.733151326133947	-0.2801908691209887	-0.4813735618351997	2.332997045600638	-0.04336333745862631	0.5941798706241296	-0.6207683786098098	1.713384825862722	1.713384825862707	-0.009318134198822091	0.001994823954190114	0.2003569329092127	-0.02357853993056673	-0.2422350588604655	0.02078009847187822	-0.02148555825433434	-0.2031220602679094	0.1539129629468545	0.03712025226777162	0.21896492070031	10.31869362377137	-20.67366923256416	6.029682256433682	-5.746679515645544	-608.342022518459	-56.09106359083253	-29.80274840479684	0.564080690276894	0.6901524670317135	-0.3060609356265792	-1.433105566246814	0.6330286300184653	-0.3103110678365649	1.798876938197598	-1.029253414511111	-1.029253414511122	0.1747541586328066	-0.03864550366715237	-0.06732412833800336	0.6179983375208379	-1.147444537830083e-07	-8.75012111338179e-07	6.310221778889402e-07	-6.501818811139001e-08	-2.271342145739203e-07	7.0183374583775e-09	-2.055140349858809e-07
0.51	-0.4477859023483777	-0.08020438952501273	0.762464662679155	1.268811492483962	-0.3095596303036037	-0.04996216844412397	-0.3372208866845421	0.6794223268115904	0.6794223268115871	-0.17253312043789	0.1736193836680427	0.0233118150055299	-0.05150993885916857	-0.7271263095840776	-0.2732070503690995	-0.484147964019055	2.317570921905443	-0.03739816865200701	0.5908820103878856	-0.6027534114698747	1.702334676041336	1.702334676041336	-0.008209569457007362	0.001807889698014838	0.1994321218482144	-0.01779423136999721	-0.2499261276643715	0.02122441371040818	-0.02162537006741658	-0.2046605600233291	0.1544438767530355	0.03767573144880285	0.2249171477588866	10.26133467404599	-20.79671559467791	5.925760005666226	-5.807617243792732	-612.5268525462697	-55.75079131306276	-28.83722457941209	0.6346865093937661	0.7058212598219389	-0.2490500712147646	-1.64260559990131	0.5705361748044242	-0.347731661764509	1.810498116144517	-1.178896889702391	-1.178896889700199	0.06642820130258843	-0.007996233790279594	-0.1144390272630335	0.5501524493794232	-1.716070728573291e-07	-7.321467208118592e-07	8.970548947218598e-07	-2.6248485320614e-09	-2.571836878617937e-07	5.722809430596137e-08	-2.310728024807776e-07
0.52	-0.4550248787680482	-0.08290098707344026	0.7576116560609657	1.291902530156134	-0.3099050733987191	-0.04407121259222611	-0.343157064044499	0.696384424084185	0.6963844240841838	-0.1726117567284367	0.1736366417910074	0.02529994875326282	-0.05166037412962223	-0.7205823181521355	-0.2660902443950336	-0.486359174660901	2.300335205060433	-0.0317419930925188	0.5872558237417935	-0.5844307837598176	1.689844481269945	1.689844481269959	-0.007600181941341631	0.001649801553950743	0.1981321334959246	-0.01234970944725099	-0.2576171964682771	0.02166872894893866	-0.02176518188050363	-0.2061990597787479	0.1549747905592166	0.03823121062983467	0.2308693748174634	10.19599406389889	-20.92093295767244	5.82495844116751	-5.85872789162154	-616.8412925632732	-55.47260079314637	-27.85792412442377	0.6678756666914739	0.7167499114670489	-0.1934226272247509	-1.795024196209563	0.5712299805922499	-0.3759763498061965	1.860409052221998	-1.317262404512353	-1.31726240451234	0.07491871340300835	-0.03287628124354557	-0.1423595865963092	0.5500410099561793	-2.30460665941225e-07	-5.958401918912973e-07	1.189505053902357e-06	6.841959166709647e-08	-2.923549829733747e-07	1.111533901975466e-07	-2.589257842076623e-07
0.53	-0.46219601527849	-0.08552587797698373	0.7527393941892906	1.314812529205249	-0.3101950569079598	-0.03821866493858603	-0.3489085650907029	0.7132145122342816	0.7132145122342854	-0.1726856065599366	0.1736525975647882	0.02727327270589409	-0.05175760665993816	-0.7135706776901265	-0.2588770747101607	-0.4879957377179462	2.281398291399201	-0.02624670351614377	0.5830404809292969	-0.5658302148901055	1.675967232202921	1.675967232202926	-0.007040801192987175	0.001632367599608037	0.1964888406078879	-0.007089473137058933	-0.2652069231824062	0.02207223036662597	-0.02189994658209534	-0.2076581024430412	0.1552951059408256	0.03864570001148838	0.2366675044739119	10.0593700924025	-20.97320618286403	5.714707215493716	-5.787175558057041	-621.1121647376985	-55.09842617780811	-26.87257014826398	0.7289218367079218	0.7252508846951382	-0.1342160172785804	-1.983011482567657	0.5397712435568037	-0.476545605616617	1.865762392976716	-1.453788928637393	-1.4537889286388	0.06576612173126857	0.02718446526247052	-0.1818834413102061	0.5150398718957485	-2.511443444812229e-07	-4.921436335466788e-07	1.284104756158441e-06	1.001311966275003e-07	-2.963296781923732e-07	1.435999033859949e-07	-2.622040105633809e-07
0.54	-0.4692948126641612	-0.08807830710613893	0.7478536781125782	1.337525161811454	-0.3104298689619573	-0.03241471718479993	-0.3544728841304836	0.7298996613395399	0.7298996613395489	-0.1727499989107172	0.1736710512825841	0.02922884986936443	-0.05180203184108318	-0.7061144931980254	-0.2515978895173809	-0.4890500156683585	2.260861916478463	-0.02070770204390174	0.5775358437709938	-0.5469943824751565	1.660856672302296	1.660856672302292	-0.005708685797448479	0.002149390356948944	0.1945827756637368	-0.001788239613065636	-0.2727966498965375	0.02247573178431328	-0.02203471128368738	-0.2091171451073345	0.1556154213224346	0.03906018939314209	0.2424656341303604	9.91878377904443	-21.0281744273878	5.608757044290105	-5.733281769156964	-625.4642079176572	-54.79394336687547	-25.88869384973488	0.7567844727098557	0.729953013048404	-0.07696560589818631	-2.114916448110731	0.5799723597656475	-0.6338352189672684	1.907461761269409	-1.563924571232638	-1.563924571232636	0.2294656428398553	0.07401506109312382	-0.1949139978191904	0.5582404527164269	-2.295974792705248e-07	-4.245261915839557e-07	1.159806080540704e-06	8.832562217481411e-08	-2.657889862961736e-07	1.522826569879935e-07	-2.382931458701498e-07
0.55	-0.4763167234076076	-0.09055760280324597	0.7429603424417257	1.360024252152791	-0.3106097894912497	-0.02666928266904182	-0.3598477199097785	0.7464272936368306	0.7464272936368366	-0.1727999841045526	0.1736953974012713	0.03116399871157418	-0.05179399126768321	-0.6981772759312472	-0.2442486825689883	-0.4895171833939305	2.238656091209845	-0.0153582221045451	0.5716537603815609	-0.5279458307407469	1.644427271954476	1.644427271954475	-0.004496764159481543	0.002624587322938138	0.192388773013611	0.003308224599630043	-0.2803413019936385	0.02258980126160004	-0.02209078347120986	-0.2106056199381214	0.1560176850014753	0.03933323314633975	0.2482088394227051	9.803841756137054	-21.02794730182559	5.495999161837372	-5.695898107354443	-629.7766785830282	-54.40367844527216	-24.90676856216281	0.8257182971124865	0.739306013234914	-0.01665191573766758	-2.318459387428544	0.5000686838659164	-0.5501859284508749	1.907593275987729	-1.718779996591856	-1.718779996590507	0.03577292842942517	0.01974924610208964	-0.2403742682322432	0.4720641726203969	-2.07171137693871e-07	-3.760580366870572e-07	1.059016175067943e-06	7.690691608608245e-08	-2.359838679623264e-07	1.606895920244215e-07	-2.178496452810607e-07
